<svg xmlns="http://www.w3.org/2000/svg" viewBox="0 0 512 512" role="img" aria-label="Quran Reader Icon">
  <defs>
    <linearGradient id="g" x1="0" x2="1" y1="0" y2="1">
      <stop offset="0" stop-color="#0EA5A6"/>
      <stop offset="1" stop-color="#0B8A8B"/>
    </linearGradient>
  </defs>
  <rect width="512" height="512" rx="120" fill="#FBFAF7"/>
  <rect x="92" y="110" width="328" height="292" rx="36" fill="url(#g)"/>
  <path d="M140 160c0-18 14-32 32-32h168c18 0 32 14 32 32v220c-20-10-44-16-72-16H172c-18 0-32-14-32-32V160z" fill="#0B1220" opacity="0.18"/>
  <path d="M160 164c0-16 13-29 29-29h152c16 0 29 13 29 29v214c-18-8-40-13-66-13H189c-16 0-29-13-29-29V164z" fill="#FBFAF7"/>
  <path d="M196 214h120c8 0 14 6 14 14s-6 14-14 14H196c-8 0-14-6-14-14s6-14 14-14zm0 68h168c8 0 14 6 14 14s-6 14-14 14H196c-8 0-14-6-14-14s6-14 14-14z" fill="#2B3A55" opacity="0.55"/>
</svg>

